:SAMPLES-PER-SECOND 30
:FULLY-SPECIFIED
:DEGREES
294
root  -5.41611 33.911 -10.8765 -168.416 36.0627 -176.888
RightUpLeg  -17.5675 -1.02581 2.49256
RightLeg  22.6991 -0.923813 -0.322014
RightFoot  -4.21398 -0.0107083 0.267592
RightToes  -28.4676 -0.133512 -0.241176
Spine  0.729239 -0.437399 0.335843
Spine1  1.41272 -0.572567 1.14356
HEad  -85.473 -53.6051 23.1159
LeftShoulder1  -1.94126e-019 -3.10601e-018 -2.51263e-017
LeftArm  -22.4528 23.9899 -77.1208
LeftForeArm  34.5642 -5.90481 -1.02065
LeftHand  -0.492096 -0.705752 9.49278
RightShoulder  -4.96962e-017 0 -2.36833e-017
RightArm  -22.8625 -9.32243 73.6171
RightForeArm  54.3013 22.3138 2.05794
RightHand  -0.5101 0.932927 -9.47998
LeftUpLeg  -32.9669 18.1957 7.02534
LeftLeg  15.6055 19.8391 4.09699
LeftFoot  1.0867 -0.00373304 0.555235
LeftToes  -28.0738 1.31378e-006 1.14341e-007
295
root  -5.53657 34.2036 -9.63277 -168.525 34.6587 -176.974
RightUpLeg  -16.8838 -1.34904 3.59821
RightLeg  18.0637 -1.78942 -0.459726
RightFoot  -0.936181 -0.00331809 0.200671
RightToes  -27.4446 -0.126726 -0.233819
Spine  0.809061 -0.784762 0.396122
Spine1  1.55382 -1.33637 1.25794
HEad  -86.6651 -54.6889 24.151
LeftShoulder1  -1.94126e-019 -3.10601e-018 -2.51263e-017
LeftArm  -18.4409 22.4766 -76.7837
LeftForeArm  34.4824 -8.06119 -1.40458
LeftHand  -0.490865 -1.25137 8.73371
RightShoulder  -4.96962e-017 0 -2.36833e-017
RightArm  -25.1996 -11.5448 73.3443
RightForeArm  53.1136 21.4615 1.93995
RightHand  -0.480165 0.339056 -9.80246
LeftUpLeg  -32.955 19.0338 5.30021
LeftLeg  20.2402 19.0837 5.54949
LeftFoot  1.3967 -0.00597743 0.651982
LeftToes  -26.7061 1.31378e-006 1.14341e-007
296
root  -5.69598 34.3825 -8.49533 -168.738 33.966 -177.403
RightUpLeg  -16.7245 -1.06377 4.07135
RightLeg  14.47 -2.51753 -0.479105
RightFoot  1.6367 0.00626112 0.083787
RightToes  -28.1232 -0.131213 -0.238712
Spine  0.715228 -0.840344 0.372099
Spine1  1.37158 -1.50127 1.2401
HEad  -87.823 -55.7224 24.443
LeftShoulder1  -1.94126e-019 -3.10601e-018 -2.51263e-017
LeftArm  -15.5245 21.0437 -76.5507
LeftForeArm  35.0591 -11.7003 -2.06402
LeftHand  -0.493918 -1.5878 8.38896
RightShoulder  -4.96962e-017 0 -2.36833e-017
RightArm  -27.2308 -14.5105 72.5454
RightForeArm  51.7828 20.4783 1.80735
RightHand  -0.471313 -0.0906427 -10.3624
LeftUpLeg  -32.404 21.322 2.86039
LeftLeg  25.747 18.3502 7.26881
LeftFoot  0.833458 -0.00206381 0.445354
LeftToes  -26.0368 1.31378e-006 1.14341e-007
297
root  -5.88351 34.4339 -7.41457 -168.698 33.5031 -177.569
RightUpLeg  -17.1703 -3.10607 4.88186
RightLeg  11.8908 -1.02743 -0.147384
RightFoot  3.40749 0.0137237 0.0704929
RightToes  -31.6492 -0.155441 -0.263264
Spine  0.545927 -0.898578 0.532098
Spine1  1.03973 -1.65694 1.56571
HEad  -88.8501 -56.0132 24.1666
LeftShoulder1  -1.94126e-019 -3.10601e-018 -2.51263e-017
LeftArm  -13.943 19.7896 -76.708
LeftForeArm  34.8271 -15.6868 -2.77977
LeftHand  -0.486073 -1.66597 8.17286
RightShoulder  -4.96962e-017 0 -2.36833e-017
RightArm  -28.5395 -17.2923 71.077
RightForeArm  51.2572 19.5263 1.65463
RightHand  -0.444251 -0.23076 -10.0213
LeftUpLeg  -30.9118 22.9006 1.20255
LeftLeg  31.0153 19.006 9.55061
LeftFoot  -0.283093 -0.000321281 0.0314362
LeftToes  -23.7471 1.31378e-006 1.14341e-007
298
root  -6.0587 34.3552 -6.34102 -168.37 33.2348 -177.016
RightUpLeg  -18.0301 -6.25516 6.51261
RightLeg  10.3481 1.80211 0.211514
RightFoot  4.46246 0.0112546 0.232957
RightToes  -36.4829 -0.191015 -0.294405
Spine  0.404327 -0.977432 0.976299
Spine1  0.762461 -1.85375 2.42098
HEad  -89.7922 -55.6264 23.8331
LeftShoulder1  -1.94126e-019 -3.10601e-018 -2.51263e-017
LeftArm  -12.5355 18.874 -77.2134
LeftForeArm  32.669 -20.5629 -3.50931
LeftHand  -0.472005 -1.59139 8.02041
RightShoulder  -4.96962e-017 0 -2.36833e-017
RightArm  -29.1593 -19.3388 69.0104
RightForeArm  51.923 17.8815 1.33072
RightHand  -0.430652 -0.204473 -9.66827
LeftUpLeg  -28.6906 24.4442 0.544694
LeftLeg  35.9372 20.2236 12.3014
LeftFoot  -2.06304 -0.0168119 -0.772115
LeftToes  -21.6083 1.31378e-006 1.14341e-007
299
root  -6.2132 34.1748 -5.2239 -167.873 33.4033 -175.99
RightUpLeg  -19.484 -7.96345 8.52178
RightLeg  10.1014 3.82182 0.430749
RightFoot  5.01263 0.00579543 0.381764
RightToes  -40.6612 -0.223786 -0.318827
Spine  0.305043 -1.08261 1.49057
Spine1  0.568405 -2.12086 3.40625
HEad  -90.4092 -54.8141 23.78
LeftShoulder1  -1.94126e-019 -3.10601e-018 -2.51263e-017
LeftArm  -11.2938 18.1506 -77.635
LeftForeArm  29.7315 -25.6456 -4.19455
LeftHand  -0.440949 -1.37687 7.72438
RightShoulder  -4.96962e-017 0 -2.36833e-017
RightArm  -30.527 -20.434 66.9991
RightForeArm  53.7311 15.5549 1.12138
RightHand  -0.413071 -0.514993 -9.83361
LeftUpLeg  -25.8144 26.541 0.648245
LeftLeg  39.7691 19.7513 13.8313
LeftFoot  -3.98378 -0.0634776 -1.66343
LeftToes  -20.7693 1.31378e-006 1.14341e-007
300
root  -6.39713 33.9568 -4.05527 -167.229 33.9649 -174.947
RightUpLeg  -21.3951 -8.53445 10.5202
RightLeg  10.3221 5.10405 0.594592
RightFoot  5.68391 -4.64517e-005 0.510725
RightToes  -43.6817 -0.248542 -0.334961
Spine  0.212273 -1.29914 1.91364
Spine1  0.382349 -2.62171 4.23025
HEad  -90.455 -53.7966 23.6748
LeftShoulder1  -1.94126e-019 -3.10601e-018 -2.51263e-017
LeftArm  -10.458 17.3973 -77.7935
LeftForeArm  27.5746 -29.974 -4.98303
LeftHand  -0.424987 -1.06484 7.78453
RightShoulder  -4.96962e-017 0 -2.36833e-017
RightArm  -34.847 -20.4862 65.3231
RightForeArm  57.5583 12.6145 1.41845
RightHand  -0.387821 -1.23782 -10.7574
LeftUpLeg  -22.4199 28.2256 1.00906
LeftLeg  41.8677 17.5463 13.3331
LeftFoot  -4.76046 -0.0826027 -1.82545
LeftToes  -22.5612 1.31378e-006 1.14341e-007
